<svg width="21" height="21" viewBox="0 0 21 21" fill="none" xmlns="http://www.w3.org/2000/svg">
<path fill-rule="evenodd" clip-rule="evenodd" d="M13.8094 10.5C14.4241 9.9617 14.8973 9.10406 14.8973 7.80769C14.8973 6.16263 14.1353 5.22404 13.289 4.74798C12.5104 4.31002 11.7457 4.30769 11.6964 4.30769H7.98701C6.94616 4.30769 6.10239 5.15146 6.10239 6.19231V14.8077C6.10239 15.8485 6.94616 16.6923 7.98701 16.6923H11.6964V15.8846C11.6964 16.6923 11.6959 16.6923 11.6964 16.6923L11.6983 16.6923L11.7004 16.6923L11.7054 16.6923L11.7179 16.6921C11.7275 16.6919 11.7394 16.6916 11.7535 16.6911C11.7818 16.69 11.819 16.6881 11.8639 16.6845C11.9535 16.6773 12.0754 16.6634 12.2192 16.6364C12.5034 16.5831 12.8923 16.4752 13.289 16.252C14.1353 15.776 14.8973 14.8374 14.8973 13.1923C14.8973 11.8959 14.4241 11.0383 13.8094 10.5ZM7.98701 5.92308C7.83831 5.92308 7.71777 6.04362 7.71777 6.19231V9.69231L11.6904 9.69231C11.6911 9.69229 11.692 9.69226 11.693 9.69222C11.6998 9.69196 11.714 9.69129 11.7345 9.68964C11.7758 9.68633 11.8409 9.67918 11.9215 9.66407C12.086 9.63324 12.2954 9.57288 12.497 9.4595C12.8473 9.26248 13.2819 8.85491 13.2819 7.80769C13.2819 6.76049 12.8473 6.35292 12.497 6.1559C12.101 5.93313 11.6926 5.92349 11.6926 5.92309C11.6926 5.92308 11.692 5.9231 11.6926 5.92309L7.98701 5.92308ZM11.6904 15.0769C11.6911 15.0769 11.692 15.0769 11.693 15.0768C11.6998 15.0766 11.714 15.0759 11.7345 15.0743C11.7758 15.0709 11.8409 15.0638 11.9215 15.0487C12.086 15.0179 12.2954 14.9575 12.497 14.8441C12.8473 14.6471 13.2819 14.2395 13.2819 13.1923C13.2819 12.1451 12.8473 11.7375 12.497 11.5405C12.2954 11.4271 12.086 11.3668 11.9215 11.3359C11.8409 11.3208 11.7758 11.3137 11.7345 11.3104C11.714 11.3087 11.6998 11.308 11.693 11.3078C11.692 11.3077 11.6911 11.3077 11.6904 11.3077L7.71777 11.3077V14.8077C7.71777 14.9564 7.83831 15.0769 7.98701 15.0769H11.6904Z" fill="white"/>
<path fill-rule="evenodd" clip-rule="evenodd" d="M10.4513 1.45626e-07H10.5487C12.5265 -8.77673e-06 14.0769 -1.57746e-05 15.3069 0.133246C16.5621 0.269237 17.5791 0.551734 18.4474 1.18263C18.9731 1.56456 19.4354 2.02687 19.8174 2.55256C20.4483 3.42091 20.7308 4.43793 20.8668 5.69313C21 6.92312 21 8.47345 21 10.4512V10.5488C21 12.5266 21 14.0769 20.8668 15.3069C20.7308 16.5621 20.4483 17.5791 19.8174 18.4474C19.4354 18.9731 18.9731 19.4354 18.4474 19.8174C17.5791 20.4483 16.5621 20.7308 15.3069 20.8668C14.0769 21 12.5266 21 10.5488 21H10.4512C8.47345 21 6.92312 21 5.69313 20.8668C4.43793 20.7308 3.42091 20.4483 2.55256 19.8174C2.02687 19.4354 1.56456 18.9731 1.18263 18.4474C0.551734 17.5791 0.269237 16.5621 0.133246 15.3069C-1.57746e-05 14.0769 -8.77673e-06 12.5265 1.45626e-07 10.5487V10.4513C-8.77673e-06 8.47346 -1.57746e-05 6.92312 0.133246 5.69313C0.269237 4.43793 0.551734 3.42091 1.18263 2.55256C1.56456 2.02687 2.02687 1.56456 2.55256 1.18263C3.42091 0.551734 4.43793 0.269237 5.69313 0.133246C6.92312 -1.57746e-05 8.47346 -8.77673e-06 10.4513 1.45626e-07ZM5.86713 1.73923C4.74938 1.86033 4.04914 2.09202 3.50206 2.4895C3.1135 2.7718 2.7718 3.1135 2.4895 3.50206C2.09202 4.04914 1.86033 4.74938 1.73923 5.86713C1.61649 6.99999 1.61538 8.46292 1.61538 10.5C1.61538 12.5371 1.61649 14 1.73923 15.1329C1.86033 16.2506 2.09202 16.9509 2.4895 17.4979C2.7718 17.8865 3.1135 18.2282 3.50206 18.5105C4.04914 18.908 4.74938 19.1397 5.86713 19.2608C6.99999 19.3835 8.46292 19.3846 10.5 19.3846C12.5371 19.3846 14 19.3835 15.1329 19.2608C16.2506 19.1397 16.9509 18.908 17.4979 18.5105C17.8865 18.2282 18.2282 17.8865 18.5105 17.4979C18.908 16.9509 19.1397 16.2506 19.2608 15.1329C19.3835 14 19.3846 12.5371 19.3846 10.5C19.3846 8.46292 19.3835 6.99999 19.2608 5.86713C19.1397 4.74938 18.908 4.04914 18.5105 3.50206C18.2282 3.1135 17.8865 2.7718 17.4979 2.4895C16.9509 2.09202 16.2506 1.86033 15.1329 1.73923C14 1.61649 12.5371 1.61538 10.5 1.61538C8.46292 1.61538 6.99999 1.61649 5.86713 1.73923Z" fill="white"/>
</svg>
