<svg width="21" height="27" viewBox="0 0 21 27" fill="none" xmlns="http://www.w3.org/2000/svg">
<path fill-rule="evenodd" clip-rule="evenodd" d="M10.1584 2.17915e-05C7.87417 -0.000337677 6.48029 -0.000556957 5.31893 0.37679C2.9755 1.13822 1.13822 2.9755 0.37679 5.31893C-0.000556957 6.48029 -0.000337677 7.87417 2.17915e-05 10.1584L4.42134e-05 20.3101C3.52766e-05 21.5547 2.8177e-05 22.5495 0.0603671 23.3155C0.119823 24.0703 0.246279 24.7863 0.62949 25.3544C1.39846 26.4943 2.73864 27.1107 4.10461 26.9527C4.78533 26.8739 5.41122 26.504 6.02301 26.0579C6.64389 25.6052 7.39917 24.9578 8.34418 24.1478L8.37873 24.1182C9.30349 23.3255 9.56674 23.1219 9.81753 23.0333C10.1783 22.9058 10.5718 22.9058 10.9325 23.0333C11.1833 23.1219 11.4466 23.3255 12.3713 24.1182L12.4059 24.1478C13.3509 24.9578 14.1062 25.6052 14.727 26.0579C15.3388 26.504 15.9647 26.8739 16.6455 26.9527C18.0114 27.1107 19.3516 26.4943 20.1206 25.3544C20.5038 24.7863 20.6302 24.0703 20.6897 23.3155C20.75 22.5495 20.75 21.5547 20.75 20.3101L20.75 10.1584C20.7504 7.87418 20.7506 6.48029 20.3733 5.31893C19.6118 2.9755 17.7746 1.13822 15.4311 0.37679C14.2698 -0.000556957 12.8759 -0.000337677 10.5917 2.17915e-05H10.1584ZM5.93946 2.28657C6.75836 2.02049 7.80517 2.00811 10.375 2.00811C12.9449 2.00811 13.9917 2.02049 14.8106 2.28657C16.5427 2.84936 17.9007 4.20736 18.4635 5.93946C18.7296 6.75836 18.742 7.80517 18.742 10.375V20.2645C18.742 21.5651 18.7412 22.4803 18.6878 23.1578C18.6328 23.8559 18.5304 24.1209 18.4558 24.2314C18.1063 24.7496 17.4971 25.0298 16.8762 24.9579C16.7438 24.9426 16.4759 24.8479 15.9101 24.4354C15.3609 24.035 14.6656 23.4399 13.6782 22.5936L13.5453 22.4796C12.8196 21.8564 12.2537 21.3704 11.6015 21.1399C10.8079 20.8595 9.94215 20.8595 9.14853 21.1399C8.49639 21.3704 7.93045 21.8564 7.20472 22.4796L7.0719 22.5936C6.08446 23.4399 5.38912 24.035 4.83994 24.4354C4.27413 24.8479 4.00628 24.9426 3.87382 24.9579C3.25292 25.0298 2.64375 24.7496 2.29422 24.2314C2.21965 24.1209 2.11722 23.8559 2.06223 23.1578C2.00886 22.4803 2.00811 21.5651 2.00811 20.2645V10.375C2.00811 7.80517 2.02049 6.75836 2.28657 5.93946C2.84936 4.20736 4.20736 2.84936 5.93946 2.28657Z" fill="#242424"/>
</svg>
