<svg width="35" height="39" viewBox="0 0 35 39" fill="none" xmlns="http://www.w3.org/2000/svg">
<path fill-rule="evenodd" clip-rule="evenodd" d="M12.1154 0C12.8588 0 13.4615 0.609101 13.4615 1.36047V3.64715C14.6627 3.62791 15.9974 3.62791 17.4802 3.62791H17.5198C19.0026 3.62791 20.3373 3.62791 21.5385 3.64715V1.36047C21.5385 0.609101 22.1412 0 22.8846 0C23.6281 0 24.2308 0.609101 24.2308 1.36047V3.74324C26.9445 3.91518 29.0293 4.35956 30.7457 5.6199C31.6219 6.26324 32.3924 7.04193 33.029 7.9274C34.0804 9.39004 34.5513 11.1031 34.7779 13.2173C35 15.2891 35 17.9005 35 21.2318V21.3347C35 23.4387 35 25.2477 34.9473 26.8024C34.8321 30.2007 34.4682 32.6985 33.029 34.7005C32.3924 35.586 31.6219 36.3647 30.7457 37.008C28.7648 38.4625 26.2933 38.8303 22.9307 38.9467C21.392 39 19.6017 39 17.5194 39H17.4187C14.1224 39 11.5385 39 9.48855 38.7756C7.39656 38.5465 5.70152 38.0707 4.25427 37.008C3.37811 36.3647 2.60761 35.586 1.97104 34.7005C0.919556 33.2379 0.448729 31.5248 0.222076 29.4106C-2.6291e-05 27.3388 -1.46279e-05 24.7274 2.42711e-07 21.396V21.2319C-1.46279e-05 17.9005 -2.6291e-05 15.2891 0.222076 13.2173C0.448729 11.1031 0.919556 9.39004 1.97104 7.9274C2.60761 7.04193 3.37811 6.26324 4.25427 5.6199C5.97074 4.35956 8.05553 3.91518 10.7692 3.74324V1.36047C10.7692 0.609101 11.3719 0 12.1154 0ZM10.7692 6.47083C8.32452 6.64074 6.91344 7.03062 5.83677 7.82118C5.18917 8.29669 4.61967 8.87225 4.14917 9.52673C3.4867 10.4482 3.10055 11.6277 2.89872 13.5104C2.69416 15.4186 2.69231 17.8827 2.69231 21.314C2.69231 24.7452 2.69416 27.2093 2.89872 29.1175C3.10055 31.0002 3.4867 32.1797 4.14917 33.1012C4.61967 33.7557 5.18917 34.3312 5.83677 34.8067C6.74857 35.4762 7.91563 35.8665 9.77854 36.0705C11.6667 36.2772 14.1049 36.2791 17.5 36.2791C19.0227 36.2791 20.357 36.279 21.5417 36.2594C21.5496 35.3985 21.5761 34.7646 21.6655 34.1939C22.365 29.7309 25.8284 26.2306 30.2445 25.5238C30.8092 25.4334 31.4363 25.4066 32.2883 25.3987C32.3076 24.2014 32.3077 22.8528 32.3077 21.314C32.3077 17.8827 32.3058 15.4186 32.1013 13.5104C31.8994 11.6277 31.5133 10.4482 30.8508 9.52673C30.3803 8.87225 29.8108 8.29669 29.1632 7.82118C28.0866 7.03062 26.6755 6.64074 24.2308 6.47083V6.80233C24.2308 7.55369 23.6281 8.16279 22.8846 8.16279C22.1412 8.16279 21.5385 7.55369 21.5385 6.80233V6.3684C20.3546 6.34893 19.0213 6.34884 17.5 6.34884C15.9787 6.34884 14.6454 6.34893 13.4615 6.3684V6.80233C13.4615 7.55369 12.8588 8.16279 12.1154 8.16279C11.3719 8.16279 10.7692 7.55369 10.7692 6.80233V6.47083ZM32.1866 28.1213C31.4598 28.1298 31.0337 28.1523 30.6657 28.2112C27.4016 28.7337 24.8417 31.3208 24.3247 34.6196C24.2664 34.9915 24.2442 35.4222 24.2358 36.1567C26.6774 35.9866 28.0873 35.5968 29.1632 34.8067C29.8108 34.3312 30.3803 33.7557 30.8508 33.1012C31.6326 32.0138 32.0183 30.5889 32.1866 28.1213Z" fill="#4784F1"/>
<path d="M10.3205 14.0581C10.3205 15.06 9.51692 15.8721 8.52564 15.8721C7.53436 15.8721 6.73077 15.06 6.73077 14.0581C6.73077 13.0563 7.53436 12.2442 8.52564 12.2442C9.51692 12.2442 10.3205 13.0563 10.3205 14.0581Z" fill="#4784F1"/>
<path d="M10.3205 21.314C10.3205 22.3158 9.51692 23.1279 8.52564 23.1279C7.53436 23.1279 6.73077 22.3158 6.73077 21.314C6.73077 20.3121 7.53436 19.5 8.52564 19.5C9.51692 19.5 10.3205 20.3121 10.3205 21.314Z" fill="#4784F1"/>
<path d="M19.2949 14.0581C19.2949 15.06 18.4913 15.8721 17.5 15.8721C16.5087 15.8721 15.7051 15.06 15.7051 14.0581C15.7051 13.0563 16.5087 12.2442 17.5 12.2442C18.4913 12.2442 19.2949 13.0563 19.2949 14.0581Z" fill="#4784F1"/>
<path d="M19.2949 21.314C19.2949 22.3158 18.4913 23.1279 17.5 23.1279C16.5087 23.1279 15.7051 22.3158 15.7051 21.314C15.7051 20.3121 16.5087 19.5 17.5 19.5C18.4913 19.5 19.2949 20.3121 19.2949 21.314Z" fill="#4784F1"/>
<path d="M19.2949 28.5698C19.2949 29.5716 18.4913 30.3837 17.5 30.3837C16.5087 30.3837 15.7051 29.5716 15.7051 28.5698C15.7051 27.5679 16.5087 26.7558 17.5 26.7558C18.4913 26.7558 19.2949 27.5679 19.2949 28.5698Z" fill="#4784F1"/>
<path d="M28.2692 14.0581C28.2692 15.06 27.4656 15.8721 26.4744 15.8721C25.4831 15.8721 24.6795 15.06 24.6795 14.0581C24.6795 13.0563 25.4831 12.2442 26.4744 12.2442C27.4656 12.2442 28.2692 13.0563 28.2692 14.0581Z" fill="#4784F1"/>
<path d="M28.2692 21.314C28.2692 22.3158 27.4656 23.1279 26.4744 23.1279C25.4831 23.1279 24.6795 22.3158 24.6795 21.314C24.6795 20.3121 25.4831 19.5 26.4744 19.5C27.4656 19.5 28.2692 20.3121 28.2692 21.314Z" fill="#4784F1"/>
<path d="M10.3205 28.5698C10.3205 29.5716 9.51692 30.3837 8.52564 30.3837C7.53436 30.3837 6.73077 29.5716 6.73077 28.5698C6.73077 27.5679 7.53436 26.7558 8.52564 26.7558C9.51692 26.7558 10.3205 27.5679 10.3205 28.5698Z" fill="#4784F1"/>
</svg>
