<svg width="16" height="14" viewBox="0 0 16 14" fill="none" xmlns="http://www.w3.org/2000/svg">
<path d="M1.25 0C0.835786 0 0.5 0.335786 0.5 0.75C0.5 1.16421 0.835786 1.5 1.25 1.5H15.25C15.6642 1.5 16 1.16421 16 0.75C16 0.335786 15.6642 0 15.25 0H1.25Z" fill="white"/>
<path d="M5.25 4C4.83579 4 4.5 4.33579 4.5 4.75C4.5 5.16421 4.83579 5.5 5.25 5.5H11.25C11.6642 5.5 12 5.16421 12 4.75C12 4.33579 11.6642 4 11.25 4H5.25Z" fill="white"/>
<path d="M1.25 8C0.835786 8 0.5 8.33579 0.5 8.75C0.5 9.16421 0.835786 9.5 1.25 9.5H15.25C15.6642 9.5 16 9.16421 16 8.75C16 8.33579 15.6642 8 15.25 8H1.25Z" fill="white"/>
<path d="M5.25 12C4.83579 12 4.5 12.3358 4.5 12.75C4.5 13.1642 4.83579 13.5 5.25 13.5H11.25C11.6642 13.5 12 13.1642 12 12.75C12 12.3358 11.6642 12 11.25 12H5.25Z" fill="white"/>
</svg>
