<svg width="29" height="29" viewBox="0 0 29 29" fill="none" xmlns="http://www.w3.org/2000/svg">
<path d="M8.55128 7.4359C7.93527 7.4359 7.4359 7.93527 7.4359 8.55128C7.4359 9.16729 7.93527 9.66667 8.55128 9.66667H13.0128C13.6288 9.66667 14.1282 9.16729 14.1282 8.55128C14.1282 7.93527 13.6288 7.4359 13.0128 7.4359H8.55128Z" fill="#4784F1"/>
<path d="M8.55128 13.3846C7.93527 13.3846 7.4359 13.884 7.4359 14.5C7.4359 15.116 7.93527 15.6154 8.55128 15.6154H20.4487C21.0647 15.6154 21.5641 15.116 21.5641 14.5C21.5641 13.884 21.0647 13.3846 20.4487 13.3846H8.55128Z" fill="#4784F1"/>
<path d="M8.55128 19.3333C7.93527 19.3333 7.4359 19.8327 7.4359 20.4487C7.4359 21.0647 7.93527 21.5641 8.55128 21.5641H13.0128C13.6288 21.5641 14.1282 21.0647 14.1282 20.4487C14.1282 19.8327 13.6288 19.3333 13.0128 19.3333H8.55128Z" fill="#4784F1"/>
<path fill-rule="evenodd" clip-rule="evenodd" d="M18.9997 0.0436764C17.7249 1.96676e-07 16.2417 1.96809e-07 14.5165 1.96809e-07H14.4327C11.7014 -1.19473e-05 9.5605 -2.16067e-05 7.86194 0.184006C6.12858 0.371804 4.72411 0.761918 3.52497 1.63315C2.79901 2.16059 2.16059 2.79901 1.63315 3.52497C0.761918 4.72411 0.371804 6.12858 0.184006 7.86194C-2.16067e-05 9.5605 -1.19473e-05 11.7014 1.9681e-07 14.4327V14.5673C-1.19473e-05 17.2986 -2.16067e-05 19.4395 0.184006 21.1381C0.371804 22.8714 0.761918 24.2759 1.63315 25.475C2.16059 26.201 2.79901 26.8394 3.52497 27.3669C4.72411 28.2381 6.12858 28.6282 7.86194 28.816C9.56047 29 11.7014 29 14.4326 29H14.5673C17.2985 29 19.4395 29 21.1381 28.816C22.8714 28.6282 24.2759 28.2381 25.475 27.3669C26.201 26.8394 26.8394 26.201 27.3669 25.475C28.2381 24.2759 28.6282 22.8714 28.816 21.1381C29 19.4395 29 17.2986 29 14.5674V14.4836C29 12.7584 29 11.2751 28.9563 10.0003C28.8609 7.21412 28.5594 5.16631 27.3669 3.52497C26.8394 2.79901 26.201 2.16059 25.475 1.63315C23.8337 0.440646 21.7859 0.139133 18.9997 0.0436764ZM4.83618 3.43788C5.59167 2.88898 6.55866 2.56903 8.10222 2.4018C9.66666 2.2323 11.6869 2.23077 14.5 2.23077C15.7616 2.23077 16.8673 2.23084 17.8489 2.24685C17.8554 2.95275 17.8773 3.47241 17.9514 3.94028C18.531 7.59931 21.4007 10.469 25.0597 11.0486C25.5276 11.1227 26.0473 11.1446 26.7531 11.1511C26.7692 12.1327 26.7692 13.2384 26.7692 14.5C26.7692 17.3131 26.7677 19.3333 26.5982 20.8978C26.431 22.4413 26.111 23.4083 25.5621 24.1638C25.1723 24.7004 24.7004 25.1723 24.1638 25.5621C23.4083 26.111 22.4413 26.431 20.8978 26.5982C19.3333 26.7677 17.3131 26.7692 14.5 26.7692C11.6869 26.7692 9.66666 26.7677 8.10222 26.5982C6.55866 26.431 5.59167 26.111 4.83618 25.5621C4.2996 25.1723 3.82773 24.7004 3.43788 24.1638C2.88898 23.4083 2.56903 22.4413 2.4018 20.8978C2.2323 19.3333 2.23077 17.3131 2.23077 14.5C2.23077 11.6869 2.2323 9.66666 2.4018 8.10222C2.56903 6.55866 2.88898 5.59167 3.43788 4.83618C3.82773 4.2996 4.2996 3.82773 4.83618 3.43788ZM20.1547 3.59131C20.1064 3.28639 20.088 2.93329 20.0811 2.33107C22.1041 2.47052 23.2723 2.79017 24.1638 3.43788C24.7004 3.82773 25.1723 4.2996 25.5621 4.83618C26.2098 5.72767 26.5295 6.89587 26.6689 8.91894C26.0667 8.91198 25.7136 8.89356 25.4087 8.84526C22.7042 8.41691 20.5831 6.29581 20.1547 3.59131Z" fill="#4784F1"/>
</svg>
