<svg width="43" height="29" viewBox="0 0 43 29" fill="none" xmlns="http://www.w3.org/2000/svg">
<path d="M42.3201 16.976L42.7532 17.2258L42.3201 16.976L36.9134 26.3523L37.3465 26.6021L36.9134 26.3523C36.536 27.0067 35.9962 27.549 35.3481 27.9256C34.7 28.3021 33.9662 28.5 33.2197 28.5H3.36124C2.37318 28.5 1.73724 27.4077 2.24677 26.524L7.65342 17.1477C8.03079 16.4933 8.5707 15.951 9.21879 15.5745C9.86684 15.1979 10.6007 15 11.3472 15H41.2057C42.1937 15 42.8296 16.0923 42.3201 16.976ZM19.95 5.18484L20.0968 5.33333H20.3056H32.25C33.9475 5.33333 35.3333 6.72695 35.3333 8.45833V11.5833H11.3472C8.62757 11.5833 6.09129 13.0587 4.72364 15.4305L0.5 22.7552V3.625C0.5 1.89362 1.88586 0.5 3.58333 0.5H15.319L19.95 5.18484Z" stroke="#4784F1"/>
</svg>
