<svg width="22" height="26" viewBox="0 0 22 26" fill="none" xmlns="http://www.w3.org/2000/svg">
<path d="M6.48718 17.3333C6.01986 17.3333 5.64103 17.7214 5.64103 18.2C5.64103 18.6787 6.01986 19.0667 6.48718 19.0667H15.5128C15.9801 19.0667 16.359 18.6787 16.359 18.2C16.359 17.7214 15.9801 17.3333 15.5128 17.3333H6.48718Z" fill="#242424"/>
<path fill-rule="evenodd" clip-rule="evenodd" d="M10.8175 1.88102e-05C8.89244 -0.000291478 7.71774 -0.000480741 6.739 0.32524C4.76406 0.982494 3.21567 2.56841 2.57398 4.59123C2.54432 4.6847 2.51755 4.7792 2.49335 4.87519C2.01699 5.25637 1.59469 5.70412 1.23894 6.20563C0.578007 7.13739 0.282058 8.22867 0.139591 9.57551C-1.63913e-05 10.8953 -9.06344e-06 12.5588 1.49303e-07 14.6811V14.7856C-9.06344e-06 16.9079 -1.63913e-05 18.5714 0.139591 19.8912C0.282058 21.238 0.578007 22.3293 1.23894 23.2611C1.63907 23.8251 2.12338 24.3212 2.67411 24.731C3.58381 25.408 4.64926 25.7111 5.96423 25.857C7.25277 26 8.8769 26 10.9488 26H11.0511C13.123 26 14.7472 26 16.0358 25.857C17.3507 25.7111 18.4162 25.408 19.3259 24.731C19.8766 24.3212 20.3609 23.8251 20.7611 23.2611C21.422 22.3293 21.7179 21.238 21.8604 19.8912C22 18.5714 22 16.9079 22 14.7858V14.681C22 12.5589 22 10.8953 21.8604 9.57551C21.7179 8.22867 21.422 7.13739 20.7611 6.20563C20.4053 5.70417 19.9831 5.25647 19.5068 4.87531C19.4826 4.77928 19.4558 4.68474 19.4261 4.59123C18.7844 2.56841 17.2361 0.982494 15.2611 0.32524C14.2824 -0.000480741 13.1077 -0.000291478 11.1826 1.88102e-05H10.8175ZM6.03385 3.60212C5.61214 3.64686 5.21575 3.70718 4.84172 3.79015C5.4308 2.94547 6.2742 2.30246 7.26195 1.97374C7.95209 1.74406 8.8343 1.73337 11.0001 1.73337C13.1658 1.73337 14.048 1.74406 14.7382 1.97374C15.7259 2.30246 16.5693 2.94548 17.1584 3.79018C16.7844 3.7072 16.388 3.64687 15.9663 3.60213C14.6896 3.46668 13.0857 3.46669 11.0483 3.4667H10.9517C8.91435 3.46669 7.31053 3.46668 6.03385 3.60212ZM3.73091 6.09291C4.30433 5.68721 5.04191 5.44995 6.20819 5.32623C7.38758 5.20111 8.90397 5.20003 11 5.20003C13.0961 5.20003 14.6125 5.20111 15.7919 5.32624C16.9582 5.44997 17.6958 5.68725 18.2692 6.09299C18.2718 6.09483 18.2744 6.09667 18.277 6.09852C18.2952 6.11146 18.3132 6.12461 18.3312 6.13797C18.7382 6.44088 19.0962 6.80753 19.392 7.22446C19.8084 7.81149 20.0511 8.56285 20.1779 9.76221C20.3065 10.9778 20.3077 12.5475 20.3077 14.7334C20.3077 16.9192 20.3065 18.4889 20.1779 19.7045C20.0511 20.9039 19.8084 21.6552 19.392 22.2422C19.0962 22.6592 18.7382 23.0258 18.3312 23.3287C17.758 23.7552 17.0245 24.0038 15.8535 24.1338C14.6667 24.2655 13.1341 24.2667 11 24.2667C8.86592 24.2667 7.33333 24.2655 6.14651 24.1338C4.97554 24.0038 4.24196 23.7552 3.66883 23.3287C3.26177 23.0258 2.90379 22.6592 2.60805 22.2422C2.19164 21.6552 1.94892 20.9039 1.82205 19.7045C1.69347 18.4889 1.69231 16.9192 1.69231 14.7334C1.69231 12.5475 1.69347 10.9778 1.82205 9.76221C1.94892 8.56285 2.19164 7.81149 2.60805 7.22446C2.90379 6.80753 3.26177 6.44088 3.66883 6.13797C3.68938 6.12267 3.71007 6.10766 3.73091 6.09291Z" fill="#242424"/>
</svg>
