<svg width="22" height="22" viewBox="0 0 22 22" fill="none" xmlns="http://www.w3.org/2000/svg">
<path d="M10.7179 8.74359C10.7179 8.27627 10.3391 7.89744 9.8718 7.89744C9.40448 7.89744 9.02564 8.27627 9.02564 8.74359V11.2821H6.48718C6.01986 11.2821 5.64103 11.6609 5.64103 12.1282C5.64103 12.5955 6.01986 12.9744 6.48718 12.9744H9.02564V15.5128C9.02564 15.9801 9.40448 16.359 9.8718 16.359C10.3391 16.359 10.7179 15.9801 10.7179 15.5128V12.9744H13.2564C13.7237 12.9744 14.1026 12.5955 14.1026 12.1282C14.1026 11.6609 13.7237 11.2821 13.2564 11.2821H10.7179V8.74359Z" fill="#4784F1"/>
<path fill-rule="evenodd" clip-rule="evenodd" d="M14.4136 0.0331338C13.4465 1.49203e-07 12.3213 1.49303e-07 11.0125 1.49303e-07H10.9489C8.87696 -9.06344e-06 7.25279 -1.63913e-05 5.96423 0.139591C4.64926 0.282058 3.58381 0.578007 2.67411 1.23894C2.12338 1.63907 1.63907 2.12338 1.23894 2.67411C0.578007 3.58381 0.282058 4.64926 0.139591 5.96423C-1.63913e-05 7.25279 -9.06343e-06 8.87696 1.49304e-07 10.9489V11.0511C-9.06343e-06 13.123 -1.63913e-05 14.7472 0.139591 16.0358C0.282058 17.3507 0.578007 18.4162 1.23894 19.3259C1.63907 19.8766 2.12338 20.3609 2.67411 20.7611C3.58381 21.422 4.64926 21.7179 5.96423 21.8604C7.25277 22 8.8769 22 10.9488 22H11.0511C13.123 22 14.7472 22 16.0358 21.8604C17.3507 21.7179 18.4162 21.422 19.3259 20.7611C19.8766 20.3609 20.3609 19.8766 20.7611 19.3259C21.422 18.4162 21.7179 17.3507 21.8604 16.0358C22 14.7472 22 13.1231 22 11.0512V10.9876C22 9.67877 22 8.55352 21.9669 7.58641C21.8945 5.47278 21.6657 3.91927 20.7611 2.67411C20.3609 2.12338 19.8766 1.63907 19.3259 1.23894C18.0807 0.334283 16.5272 0.10555 14.4136 0.0331338ZM3.66883 2.60805C4.24196 2.19164 4.97554 1.94892 6.14651 1.82205C7.33332 1.69347 8.86592 1.69231 11 1.69231C11.9571 1.69231 12.7959 1.69236 13.5405 1.70451C13.5454 2.24001 13.5621 2.63424 13.6183 2.98918C14.058 5.76499 16.235 7.94203 19.0108 8.38167C19.3658 8.43789 19.76 8.45455 20.2955 8.45948C20.3076 9.20414 20.3077 10.0429 20.3077 11C20.3077 13.1341 20.3065 14.6667 20.1779 15.8535C20.0511 17.0245 19.8084 17.758 19.392 18.3312C19.0962 18.7382 18.7382 19.0962 18.3312 19.392C17.758 19.8084 17.0245 20.0511 15.8535 20.1779C14.6667 20.3065 13.1341 20.3077 11 20.3077C8.86592 20.3077 7.33332 20.3065 6.14651 20.1779C4.97554 20.0511 4.24196 19.8084 3.66883 19.392C3.26177 19.0962 2.90379 18.7382 2.60805 18.3312C2.19164 17.758 1.94892 17.0245 1.82205 15.8535C1.69347 14.6667 1.69231 13.1341 1.69231 11C1.69231 8.86592 1.69347 7.33332 1.82205 6.14651C1.94892 4.97554 2.19164 4.24196 2.60805 3.66883C2.90379 3.26177 3.26177 2.90379 3.66883 2.60805ZM15.2898 2.72444C15.2532 2.49312 15.2392 2.22525 15.2339 1.7684C16.7687 1.87419 17.6549 2.11668 18.3312 2.60805C18.7382 2.90379 19.0962 3.26177 19.392 3.66883C19.8833 4.34513 20.1258 5.23135 20.2316 6.76609C19.7747 6.76081 19.5069 6.74684 19.2756 6.7102C17.2239 6.38524 15.6148 4.77613 15.2898 2.72444Z" fill="#4784F1"/>
</svg>
