<svg width="28" height="27" viewBox="0 0 28 27" fill="none" xmlns="http://www.w3.org/2000/svg">
<path fill-rule="evenodd" clip-rule="evenodd" d="M13.8753 0.00468369C13.7051 -0.00156123 13.5347 -0.00156123 13.3644 0.00468369C12.2407 0.0459086 11.2288 0.428035 10.1193 1.06414C9.03806 1.68403 7.7933 2.58841 6.21391 3.73591L6.12806 3.79829C4.54866 4.94578 3.30387 5.85016 2.3802 6.68691C1.43238 7.54553 0.756258 8.38983 0.36979 9.44585C0.311246 9.60582 0.258589 9.76788 0.211923 9.93171C-0.0961303 11.0132 -0.0454027 12.0937 0.216713 13.3454C0.472149 14.5653 0.947619 16.0286 1.55091 17.8853L1.5837 17.9862C2.18696 19.8429 2.66242 21.3063 3.17278 22.4433C3.69649 23.61 4.29053 24.514 5.17544 25.2078C5.30949 25.313 5.44735 25.4131 5.58874 25.5081C6.47903 26.1063 7.46938 26.394 8.66354 26.5386C9.93387 26.6925 11.5221 26.6925 13.5591 26.6925H13.6807C15.7176 26.6925 17.3059 26.6925 18.5762 26.5386C19.7704 26.394 20.7607 26.1063 21.651 25.5081C21.7924 25.4131 21.9303 25.313 22.0643 25.2078C22.9492 24.514 23.5433 23.61 24.067 22.4433C24.5773 21.3062 25.0528 19.8429 25.6561 17.9862L25.6889 17.8852C26.2921 16.0287 26.7676 14.5652 27.023 13.3454C27.2851 12.0937 27.3359 11.0132 27.0278 9.93171C26.9812 9.76789 26.9285 9.60582 26.87 9.44585C26.4835 8.38983 25.8074 7.54553 24.8595 6.68691C23.9359 5.85016 22.6911 4.94578 21.1117 3.79828L21.0258 3.73589C19.4464 2.5884 18.2017 1.68402 17.1205 1.06414C16.011 0.428035 14.9991 0.0459086 13.8753 0.00468369ZM13.4311 1.8211C13.5569 1.81648 13.6828 1.81648 13.8087 1.8211C14.5302 1.84757 15.2488 2.08625 16.2164 2.641C17.2025 3.20635 18.3686 4.05208 20.0004 5.23761C21.6321 6.42315 22.7968 7.27086 23.6392 8.03399C24.4658 8.7828 24.9149 9.3925 25.163 10.0705C25.2063 10.1888 25.2452 10.3085 25.2797 10.4296C25.4775 11.124 25.4726 11.8812 25.244 12.9729C25.011 14.0854 24.567 15.4558 23.9438 17.3741C23.3205 19.2923 22.8742 20.662 22.4087 21.699C21.952 22.7165 21.5109 23.332 20.9427 23.7775C20.8437 23.8552 20.7418 23.9292 20.6373 23.9994C20.2791 24.2401 19.8773 24.4187 19.3757 24.5492V21.2902C19.3757 18.1113 16.7987 15.5343 13.6199 15.5343C10.441 15.5343 7.86402 18.1113 7.86402 21.2902V24.5492C7.3624 24.4187 6.96062 24.2401 6.60249 23.9994C6.49798 23.9292 6.39609 23.8552 6.29701 23.7775C5.72884 23.332 5.28776 22.7165 4.83103 21.6989C4.36557 20.662 3.91925 19.2923 3.29598 17.3741C2.67271 15.4558 2.22873 14.0854 1.99577 12.9729C1.76718 11.8812 1.76224 11.124 1.96003 10.4296C1.99452 10.3086 2.03344 10.1888 2.07671 10.0705C2.32485 9.3925 2.77392 8.7828 3.60052 8.03399C4.44292 7.27086 5.60761 6.42315 7.23936 5.23761C8.8711 4.05208 10.0372 3.20635 11.0233 2.641C11.9909 2.08625 12.7095 1.84757 13.4311 1.8211ZM13.6199 17.352C15.7949 17.352 17.5581 19.1152 17.5581 21.2902V24.8068C16.5361 24.8739 15.2718 24.8748 13.6199 24.8748C11.9679 24.8748 10.7037 24.8739 9.68166 24.8068V21.2902C9.68166 19.1152 11.4449 17.352 13.6199 17.352Z" fill="#242424"/>
</svg>
