<svg width="21" height="21" viewBox="0 0 21 21" fill="none" xmlns="http://www.w3.org/2000/svg">
<path d="M6.46154 5.11539C6.46154 4.66931 6.82316 4.30769 7.26923 4.30769H11.5603C11.5708 4.30749 11.5813 4.30749 11.5919 4.30769H15.8846C16.3307 4.30769 16.6923 4.66931 16.6923 5.11539C16.6923 5.56146 16.3307 5.92308 15.8846 5.92308H12.2391L10.4083 15.0769H13.7308C14.1768 15.0769 14.5385 15.4385 14.5385 15.8846C14.5385 16.3307 14.1768 16.6923 13.7308 16.6923H9.43975C9.42924 16.6925 9.41869 16.6925 9.40812 16.6923H5.11539C4.66931 16.6923 4.30769 16.3307 4.30769 15.8846C4.30769 15.4385 4.66931 15.0769 5.11539 15.0769H8.76093L10.5917 5.92308H7.26923C6.82316 5.92308 6.46154 5.56146 6.46154 5.11539Z" fill="white"/>
<path fill-rule="evenodd" clip-rule="evenodd" d="M15.3069 0.133246C14.0769 -1.56462e-05 12.5265 -8.65146e-06 10.5487 1.42517e-07H10.4513C8.47346 -8.65146e-06 6.92312 -1.56462e-05 5.69313 0.133246C4.43793 0.269238 3.42091 0.551734 2.55256 1.18263C2.02687 1.56457 1.56457 2.02687 1.18263 2.55256C0.551734 3.42091 0.269238 4.43793 0.133246 5.69313C-1.56462e-05 6.92312 -8.65146e-06 8.47346 1.42517e-07 10.4513V10.5487C-8.65146e-06 12.5265 -1.56462e-05 14.0769 0.133246 15.3069C0.269238 16.5621 0.551734 17.5791 1.18263 18.4474C1.56456 18.9731 2.02687 19.4354 2.55256 19.8174C3.42091 20.4483 4.43793 20.7308 5.69313 20.8668C6.9231 21 8.47341 21 10.4512 21H10.5488C12.5265 21 14.0769 21 15.3069 20.8668C16.5621 20.7308 17.5791 20.4483 18.4474 19.8174C18.9731 19.4354 19.4354 18.9731 19.8174 18.4474C20.4483 17.5791 20.7308 16.5621 20.8668 15.3069C21 14.0769 21 12.5266 21 10.5488V10.4512C21 8.47349 21 6.9231 20.8668 5.69313C20.7308 4.43793 20.4483 3.42091 19.8174 2.55256C19.4354 2.02687 18.9731 1.56456 18.4474 1.18263C17.5791 0.551734 16.5621 0.269238 15.3069 0.133246ZM3.50206 2.4895C4.04914 2.09202 4.74938 1.86033 5.86713 1.73923C6.99999 1.61649 8.46292 1.61539 10.5 1.61539C12.5371 1.61539 14 1.61649 15.1329 1.73923C16.2506 1.86033 16.9509 2.09202 17.4979 2.4895C17.8865 2.7718 18.2282 3.1135 18.5105 3.50206C18.908 4.04914 19.1397 4.74937 19.2608 5.86713C19.3835 6.99999 19.3846 8.46292 19.3846 10.5C19.3846 12.5371 19.3835 14 19.2608 15.1329C19.1397 16.2506 18.908 16.9509 18.5105 17.4979C18.2282 17.8865 17.8865 18.2282 17.4979 18.5105C16.9509 18.908 16.2506 19.1397 15.1329 19.2608C14 19.3835 12.5371 19.3846 10.5 19.3846C8.46292 19.3846 6.99999 19.3835 5.86713 19.2608C4.74937 19.1397 4.04914 18.908 3.50206 18.5105C3.1135 18.2282 2.7718 17.8865 2.4895 17.4979C2.09202 16.9509 1.86033 16.2506 1.73923 15.1329C1.61649 14 1.61539 12.5371 1.61539 10.5C1.61539 8.46292 1.61649 6.99999 1.73923 5.86713C1.86033 4.74938 2.09202 4.04914 2.4895 3.50206C2.7718 3.1135 3.1135 2.7718 3.50206 2.4895Z" fill="white"/>
</svg>
