<svg width="16" height="14" viewBox="0 0 16 14" fill="none" xmlns="http://www.w3.org/2000/svg">
<path d="M0.75 0C0.335786 0 0 0.335786 0 0.75C0 1.16421 0.335786 1.5 0.75 1.5H14.75C15.1642 1.5 15.5 1.16421 15.5 0.75C15.5 0.335786 15.1642 0 14.75 0H0.75Z" fill="white"/>
<path d="M0.75 4C0.335786 4 0 4.33579 0 4.75C0 5.16421 0.335786 5.5 0.75 5.5H6.75C7.16421 5.5 7.5 5.16421 7.5 4.75C7.5 4.33579 7.16421 4 6.75 4H0.75Z" fill="white"/>
<path d="M0.75 8C0.335786 8 0 8.33579 0 8.75C0 9.16421 0.335786 9.5 0.75 9.5H14.75C15.1642 9.5 15.5 9.16421 15.5 8.75C15.5 8.33579 15.1642 8 14.75 8H0.75Z" fill="white"/>
<path d="M0.75 12C0.335786 12 0 12.3358 0 12.75C0 13.1642 0.335786 13.5 0.75 13.5H6.75C7.16421 13.5 7.5 13.1642 7.5 12.75C7.5 12.3358 7.16421 12 6.75 12H0.75Z" fill="white"/>
</svg>
