<svg width="16" height="14" viewBox="0 0 16 14" fill="none" xmlns="http://www.w3.org/2000/svg">
<path d="M1.25 0C0.835786 0 0.5 0.335786 0.5 0.75C0.5 1.16421 0.835786 1.5 1.25 1.5H15.25C15.6642 1.5 16 1.16421 16 0.75C16 0.335786 15.6642 0 15.25 0H1.25Z" fill="white"/>
<path d="M1.25 4C0.835786 4 0.5 4.33579 0.5 4.75C0.5 5.16421 0.835786 5.5 1.25 5.5H15.25C15.6642 5.5 16 5.16421 16 4.75C16 4.33579 15.6642 4 15.25 4H1.25Z" fill="white"/>
<path d="M1.25 8C0.835786 8 0.5 8.33579 0.5 8.75C0.5 9.16421 0.835786 9.5 1.25 9.5H15.25C15.6642 9.5 16 9.16421 16 8.75C16 8.33579 15.6642 8 15.25 8H1.25Z" fill="white"/>
<path d="M1.25 12C0.835786 12 0.5 12.3358 0.5 12.75C0.5 13.1642 0.835786 13.5 1.25 13.5H15.25C15.6642 13.5 16 13.1642 16 12.75C16 12.3358 15.6642 12 15.25 12H1.25Z" fill="white"/>
</svg>
