<svg width="22" height="22" viewBox="0 0 22 22" fill="none" xmlns="http://www.w3.org/2000/svg">
<path d="M19.25 8.25V3.31934C19.25 2.95453 19.1052 2.6052 18.8474 2.34695L16.9026 0.402617C16.6448 0.144805 16.295 0 15.9302 0H4.125C3.36574 0 2.75 0.615742 2.75 1.375V8.25C1.23105 8.25 0 9.48105 0 11V15.8125C0 16.1923 0.307656 16.5 0.6875 16.5H2.75V20.625C2.75 21.3843 3.36574 22 4.125 22H17.875C18.6343 22 19.25 21.3843 19.25 20.625V16.5H21.3125C21.6923 16.5 22 16.1923 22 15.8125V11C22 9.48105 20.7689 8.25 19.25 8.25ZM16.5 19.25H5.5V15.125H16.5V19.25ZM16.5 9.625H5.5V2.75H13.75V4.8125C13.75 5.19234 14.0577 5.5 14.4375 5.5H16.5V9.625ZM18.5625 12.7188C17.9932 12.7188 17.5312 12.2568 17.5312 11.6875C17.5312 11.1177 17.9932 10.6562 18.5625 10.6562C19.1318 10.6562 19.5938 11.1177 19.5938 11.6875C19.5938 12.2568 19.1318 12.7188 18.5625 12.7188Z" fill="white"/>
</svg>
