<svg width="24" height="25" viewBox="0 0 24 25" fill="none" xmlns="http://www.w3.org/2000/svg">
<path d="M1.63651 6.99492L2.30007 7.34446L1.63651 6.99492ZM1.9228 6.512L2.54795 6.92636H2.54795L1.9228 6.512ZM6.5 21.7774L6.13242 22.4311L6.5 21.7774ZM1.9228 18.488L2.54795 18.0736L1.9228 18.488ZM1.63651 18.0051L2.30007 17.6555L1.63651 18.0051ZM17.5 21.7774L17.8676 22.4311L17.5 21.7774ZM12.2863 23.9931L12.3225 24.7422L12.2863 23.9931ZM11.7137 23.9931L11.6775 24.7422L11.7137 23.9931ZM22.3635 18.0051L21.6999 17.6555L22.3635 18.0051ZM22.0772 18.488L21.4521 18.0736L22.0772 18.488ZM22.0772 6.512L21.4521 6.92636L22.0772 6.512ZM22.3635 6.99492L21.6999 7.34446L22.3635 6.99492ZM12.2863 1.00692L12.3225 0.257792L12.2863 1.00692ZM11.7137 1.00692L11.6775 0.257792L11.7137 1.00692ZM19.8936 20.2174L19.176 20.4355L19.182 20.4554L19.1892 20.475L19.8936 20.2174ZM4.09831 20.2444L3.37933 20.031L3.36916 20.0652L3.36229 20.1003L4.09831 20.2444ZM4.0734 20.3716L3.67541 21.0073L4.0734 20.3716ZM15.8688 9.12641C15.8688 11.1778 14.1555 12.8745 12 12.8745V14.3745C14.9463 14.3745 17.3688 12.0435 17.3688 9.12641H15.8688ZM12 12.8745C9.84448 12.8745 8.1312 11.1778 8.1312 9.12641H6.6312C6.6312 12.0435 9.05373 14.3745 12 14.3745V12.8745ZM8.1312 9.12641C8.1312 7.07498 9.84448 5.37829 12 5.37829V3.87829C9.05373 3.87829 6.6312 6.20936 6.6312 9.12641H8.1312ZM12 5.37829C14.1555 5.37829 15.8688 7.07498 15.8688 9.12641H17.3688C17.3688 6.20936 14.9463 3.87829 12 3.87829V5.37829ZM1.75 12.5C1.75 11.0543 1.75073 10.02 1.82643 9.19493C1.90075 8.38487 2.04377 7.83103 2.30007 7.34446L0.97294 6.64538C0.592737 7.36715 0.417503 8.1336 0.3327 9.05788C0.249274 9.96714 0.25 11.0812 0.25 12.5H1.75ZM6.13242 2.56888C4.87015 3.27861 3.88105 3.83397 3.1161 4.35766C2.33981 4.88911 1.74833 5.41771 1.29766 6.09764L2.54795 6.92636C2.85355 6.46529 3.27703 6.06533 3.96345 5.5954C4.6612 5.11772 5.58257 4.59889 6.86758 3.87638L6.13242 2.56888ZM2.30007 7.34446C2.3755 7.20126 2.45822 7.06172 2.54795 6.92636L1.29766 6.09764C1.18023 6.2748 1.07185 6.4576 0.97294 6.64538L2.30007 7.34446ZM0.25 12.5C0.25 13.9188 0.249274 15.0329 0.3327 15.9421C0.417503 16.8664 0.592737 17.6328 0.97294 18.3546L2.30007 17.6555C2.04377 17.169 1.90075 16.6151 1.82643 15.8051C1.75073 14.98 1.75 13.9457 1.75 12.5H0.25ZM2.54795 18.0736C2.45823 17.9383 2.37551 17.7987 2.30007 17.6555L0.97294 18.3546C1.07185 18.5424 1.18023 18.7252 1.29766 18.9024L2.54795 18.0736ZM17.1324 21.1236C15.8475 21.8461 14.9253 22.3638 14.1513 22.7136C13.3904 23.0575 12.8195 23.2164 12.2501 23.244L12.3225 24.7422C13.1458 24.7024 13.9082 24.4696 14.7691 24.0805C15.6169 23.6973 16.6052 23.1409 17.8676 22.4311L17.1324 21.1236ZM6.13242 22.4311C7.39481 23.1409 8.38306 23.6973 9.23092 24.0805C10.0918 24.4696 10.8542 24.7024 11.6775 24.7422L11.7499 23.244C11.1805 23.2164 10.6096 23.0575 9.84866 22.7136C9.07468 22.3638 8.15247 21.8461 6.86758 21.1236L6.13242 22.4311ZM12.2501 23.244C12.0835 23.252 11.9165 23.252 11.7499 23.244L11.6775 24.7422C11.8924 24.7526 12.1076 24.7526 12.3225 24.7422L12.2501 23.244ZM22.25 12.5C22.25 13.9457 22.2493 14.98 22.1736 15.8051C22.0992 16.6151 21.9562 17.169 21.6999 17.6555L23.0271 18.3546C23.4073 17.6328 23.5825 16.8664 23.6673 15.9421C23.7507 15.0329 23.75 13.9188 23.75 12.5H22.25ZM21.6999 17.6555C21.6245 17.7987 21.5418 17.9383 21.4521 18.0736L22.7023 18.9024C22.8198 18.7252 22.9281 18.5424 23.0271 18.3546L21.6999 17.6555ZM17.1324 3.87638C18.4174 4.59889 19.3388 5.11772 20.0365 5.5954C20.723 6.06533 21.1464 6.46529 21.4521 6.92636L22.7023 6.09764C22.2517 5.41771 21.6602 4.88911 20.8839 4.35766C20.1189 3.83397 19.1298 3.27861 17.8676 2.56888L17.1324 3.87638ZM23.75 12.5C23.75 11.0812 23.7507 9.96714 23.6673 9.05788C23.5825 8.1336 23.4073 7.36715 23.0271 6.64538L21.6999 7.34446C21.9562 7.83103 22.0992 8.38487 22.1736 9.19493C22.2493 10.02 22.25 11.0543 22.25 12.5H23.75ZM21.4521 6.92636C21.5418 7.06172 21.6245 7.20126 21.6999 7.34446L23.0271 6.64538C22.9281 6.4576 22.8198 6.2748 22.7023 6.09764L21.4521 6.92636ZM17.8676 2.56888C16.6052 1.85908 15.6169 1.30266 14.7691 0.919488C13.9082 0.53043 13.1458 0.2976 12.3225 0.257792L12.2501 1.75604C12.8195 1.78358 13.3904 1.94248 14.1513 2.28638C14.9253 2.63617 15.8475 3.15393 17.1324 3.87638L17.8676 2.56888ZM6.86758 3.87638C8.15247 3.15393 9.07468 2.63617 9.84866 2.28638C10.6096 1.94248 11.1805 1.78358 11.7499 1.75604L11.6775 0.257792C10.8542 0.2976 10.0918 0.53043 9.23092 0.919488C8.38306 1.30266 7.39481 1.85908 6.13242 2.56888L6.86758 3.87638ZM12.3225 0.257792C12.1076 0.247403 11.8924 0.247403 11.6775 0.257792L11.7499 1.75604C11.9165 1.74799 12.0835 1.74799 12.2501 1.75604L12.3225 0.257792ZM8.5359 17.7481H15.4641V16.2481H8.5359V17.7481ZM15.4641 17.7481C17.2308 17.7481 18.7069 18.8923 19.176 20.4355L20.6112 19.9993C19.9488 17.8199 17.8868 16.2481 15.4641 16.2481V17.7481ZM17.8676 22.4311C18.8563 21.8752 19.6744 21.4154 20.3443 20.995L19.5469 19.7245C18.9145 20.1214 18.1322 20.5615 17.1324 21.1236L17.8676 22.4311ZM20.3443 20.995C21.3928 20.3369 22.1533 19.7308 22.7023 18.9024L21.4521 18.0736C21.079 18.6365 20.5326 19.1058 19.5469 19.7245L20.3443 20.995ZM19.1892 20.475L19.2412 20.6173L20.65 20.1021L20.5979 19.9598L19.1892 20.475ZM8.5359 16.2481C6.10156 16.2481 4.03128 17.8352 3.37933 20.031L4.81729 20.4579C5.27883 18.9034 6.76055 17.7481 8.5359 17.7481V16.2481ZM6.86758 21.1236C5.87759 20.567 5.10079 20.13 4.47139 19.736L3.67541 21.0073C4.3414 21.4243 5.15322 21.8805 6.13242 22.4311L6.86758 21.1236ZM4.47139 19.736C3.4742 19.1116 2.9234 18.6401 2.54795 18.0736L1.29766 18.9024C1.85011 19.7358 2.61664 20.3445 3.67541 21.0073L4.47139 19.736ZM3.36229 20.1003L3.33738 20.2275L4.80942 20.5158L4.83433 20.3886L3.36229 20.1003Z" fill="#242424"/>
</svg>
