<svg width="16" height="14" viewBox="0 0 16 14" fill="none" xmlns="http://www.w3.org/2000/svg">
<path d="M0.75 1.5L14.75 1.5C15.1642 1.5 15.5 1.16421 15.5 0.75C15.5 0.335786 15.1642 0 14.75 0H0.75C0.335786 0 0 0.335788 0 0.75C0 1.16421 0.335786 1.5 0.75 1.5Z" fill="white"/>
<path d="M8.75 5.5L14.75 5.5C15.1642 5.5 15.5 5.16421 15.5 4.75C15.5 4.33579 15.1642 4 14.75 4L8.75 4C8.33579 4 8 4.33579 8 4.75C8 5.16422 8.33579 5.5 8.75 5.5Z" fill="white"/>
<path d="M0.75 8C0.335786 8 0 8.33579 0 8.75C0 9.16421 0.335786 9.5 0.75 9.5L14.75 9.5C15.1642 9.5 15.5 9.16421 15.5 8.75C15.5 8.33579 15.1642 8 14.75 8L0.75 8Z" fill="white"/>
<path d="M8.75 13.5L14.75 13.5C15.1642 13.5 15.5 13.1642 15.5 12.75C15.5 12.3358 15.1642 12 14.75 12L8.75 12C8.33579 12 8 12.3358 8 12.75C8 13.1642 8.33579 13.5 8.75 13.5Z" fill="white"/>
</svg>
