<svg width="21" height="20" viewBox="0 0 21 20" fill="none" xmlns="http://www.w3.org/2000/svg">
<path d="M16.5404 0.280399C16.157 -0.0958379 15.5381 -0.0931042 15.1581 0.286505C14.7781 0.666114 14.7809 1.27885 15.1643 1.65509L17.0023 3.45876C17.7515 4.19397 18.2537 4.68885 18.5914 5.10514C18.5952 5.10992 18.5991 5.11467 18.6029 5.11939C18.6143 5.13357 18.6254 5.14753 18.6363 5.16129H7.49346C3.35493 5.16129 0 8.48305 0 12.5806C0 16.6782 3.35494 20 7.49346 20H17.9191C18.4589 20 18.8965 19.5667 18.8965 19.0323C18.8965 18.4978 18.4589 18.0645 17.9191 18.0645H7.49346C4.43455 18.0645 1.95481 15.6093 1.95481 12.5806C1.95481 9.55199 4.43455 7.09678 7.49346 7.09678H18.6363C18.6218 7.11512 18.6069 7.13383 18.5914 7.15292C18.2537 7.56921 17.7515 8.06409 17.0023 8.79931L15.1643 10.603C14.7809 10.9792 14.7781 11.5919 15.1581 11.9716C15.5381 12.3512 16.157 12.3539 16.5404 11.9777L18.4184 10.1347C19.1172 9.44902 19.7 8.87713 20.1155 8.36485C20.5514 7.82753 20.8829 7.26282 20.9714 6.57483C20.9905 6.42683 21 6.27793 21 6.12903C21 5.98014 20.9905 5.83124 20.9714 5.68323C20.8829 4.99524 20.5513 4.43053 20.1155 3.89321C19.7 3.38093 19.1172 2.80908 18.4185 2.12343L16.5404 0.280399Z" fill="white"/>
</svg>
