<svg width="40" height="25" viewBox="0 0 40 25" fill="none" xmlns="http://www.w3.org/2000/svg">
<path fill-rule="evenodd" clip-rule="evenodd" d="M18.0436 0C14.8632 0 12.285 2.54384 12.285 5.68182C12.285 8.8198 14.8632 11.3636 18.0436 11.3636C21.224 11.3636 23.8022 8.8198 23.8022 5.68182C23.8022 2.54384 21.224 0 18.0436 0ZM14.5885 5.68182C14.5885 3.79903 16.1354 2.27273 18.0436 2.27273C19.9518 2.27273 21.4988 3.79903 21.4988 5.68182C21.4988 7.56461 19.9518 9.09091 18.0436 9.09091C16.1354 9.09091 14.5885 7.56461 14.5885 5.68182Z" fill="#4784F1"/>
<path fill-rule="evenodd" clip-rule="evenodd" d="M13.4367 13.6364C10.2563 13.6364 7.67813 16.1802 7.67813 19.3182C7.67813 22.4562 10.2563 25 13.4367 25H22.6505C25.8309 25 28.4091 22.4562 28.4091 19.3182C28.4091 16.1802 25.8309 13.6364 22.6505 13.6364H13.4367ZM9.98157 19.3182C9.98157 17.4354 11.5285 15.9091 13.4367 15.9091H22.6505C24.5587 15.9091 26.1057 17.4354 26.1057 19.3182C26.1057 21.201 24.5587 22.7273 22.6505 22.7273H13.4367C11.5285 22.7273 9.98157 21.201 9.98157 19.3182Z" fill="#4784F1"/>
<path d="M11.5205 9.67978C11.2783 9.29587 10.8238 9.09091 10.3655 9.09091C8.45725 9.09091 6.91032 7.56461 6.91032 5.68182C6.91032 3.79903 8.45725 2.27273 10.3655 2.27273C10.8238 2.27273 11.2783 2.06777 11.5205 1.68386C11.5312 1.66688 11.542 1.64995 11.5528 1.63306C11.9561 1.00501 11.7518 0.115758 11.0028 0.0343988C10.7935 0.0116682 10.5809 0 10.3655 0C7.18509 0 4.60688 2.54384 4.60688 5.68182C4.60688 8.8198 7.18509 11.3636 10.3655 11.3636C10.5809 11.3636 10.7935 11.352 11.0028 11.3292C11.7518 11.2479 11.9561 10.3586 11.5528 9.73058C11.542 9.71369 11.5312 9.69676 11.5205 9.67978Z" fill="#4784F1"/>
<path d="M6.84627 21.6922C6.67194 21.4053 6.36424 21.2121 6.02516 21.2121H5.7586C3.85037 21.2121 2.30344 19.6858 2.30344 17.803C2.30344 15.9202 3.85037 14.3939 5.7586 14.3939H6.02516C6.36424 14.3939 6.67194 14.2008 6.84627 13.9138C7.27179 13.2134 6.81002 12.1212 5.98233 12.1212H5.7586C2.57821 12.1212 0 14.665 0 17.803C0 20.941 2.57821 23.4848 5.7586 23.4848H5.98233C6.81002 23.4848 7.27179 22.3927 6.84627 21.6922Z" fill="#4784F1"/>
<path d="M29.4318 12.5L25.4546 9.375L29.4318 6.25V8.59375H39.7727V10.1562H29.4318V12.5ZM34.2046 6.25V3.90625H23.8636V2.34375H34.2046V0L38.1818 3.125L34.2046 6.25Z" fill="#4784F1"/>
</svg>
