<svg width="28" height="31" viewBox="0 0 28 31" fill="none" xmlns="http://www.w3.org/2000/svg">
<path d="M24.8889 31H3.11111C1.39289 31 0 29.6121 0 27.9V6.2C0 4.48792 1.39289 3.1 3.11111 3.1H6.22222V0H9.33333V3.1H18.6667V0H21.7778V3.1H24.8889C26.6071 3.1 28 4.48792 28 6.2V27.9C28 29.6121 26.6071 31 24.8889 31ZM3.11111 12.4V27.9H24.8889V12.4H3.11111ZM3.11111 6.2V9.3H24.8889V6.2H3.11111ZM12.4444 25.4417L6.678 19.6958L8.87756 17.5042L12.4444 21.0583L19.1224 14.4042L21.322 16.5958L12.4444 25.4401V25.4417Z" fill="#4784F1"/>
</svg>
