<svg width="21" height="25" viewBox="0 0 21 25" fill="none" xmlns="http://www.w3.org/2000/svg">
<path fill-rule="evenodd" clip-rule="evenodd" d="M15.3069 4.13325C14.0769 3.99998 12.5265 3.99999 10.5487 4H10.4513C8.47346 3.99999 6.92312 3.99998 5.69313 4.13325C4.43793 4.26924 3.42091 4.55173 2.55256 5.18263C2.02687 5.56457 1.56457 6.02687 1.18263 6.55256C0.551734 7.42091 0.269238 8.43793 0.133246 9.69313C-1.56462e-05 10.9231 -8.65146e-06 12.4735 1.42516e-07 14.4513V14.5487C-8.65146e-06 16.5265 -1.56462e-05 18.0769 0.133246 19.3069C0.269238 20.5621 0.551734 21.5791 1.18263 22.4474C1.56456 22.9731 2.02687 23.4354 2.55256 23.8174C3.42091 24.4483 4.43793 24.7308 5.69313 24.8668C6.9231 25 8.47341 25 10.4512 25H10.5488C12.5265 25 14.0769 25 15.3069 24.8668C16.5621 24.7308 17.5791 24.4483 18.4474 23.8174C18.9731 23.4354 19.4354 22.9731 19.8174 22.4474C20.4483 21.5791 20.7308 20.5621 20.8668 19.3069C21 18.0769 21 16.5266 21 14.5488V14.4512C21 12.4735 21 10.9231 20.8668 9.69313C20.7308 8.43793 20.4483 7.42091 19.8174 6.55256C19.4354 6.02687 18.9731 5.56456 18.4474 5.18263C17.5791 4.55173 16.5621 4.26924 15.3069 4.13325ZM3.50206 6.4895C4.04914 6.09202 4.74938 5.86033 5.86713 5.73923C6.99999 5.61649 8.46292 5.61539 10.5 5.61539C12.5371 5.61539 14 5.61649 15.1329 5.73923C16.2506 5.86033 16.9509 6.09202 17.4979 6.4895C17.8865 6.7718 18.2282 7.1135 18.5105 7.50206C18.908 8.04914 19.1397 8.74937 19.2608 9.86713C19.3835 11 19.3846 12.4629 19.3846 14.5C19.3846 16.5371 19.3835 18 19.2608 19.1329C19.1397 20.2506 18.908 20.9509 18.5105 21.4979C18.2282 21.8865 17.8865 22.2282 17.4979 22.5105C16.9509 22.908 16.2506 23.1397 15.1329 23.2608C14 23.3835 12.5371 23.3846 10.5 23.3846C8.46292 23.3846 6.99999 23.3835 5.86713 23.2608C4.74937 23.1397 4.04914 22.908 3.50206 22.5105C3.1135 22.2282 2.7718 21.8865 2.4895 21.4979C2.09202 20.9509 1.86033 20.2506 1.73923 19.1329C1.61649 18 1.61539 16.5371 1.61539 14.5C1.61539 12.4629 1.61649 11 1.73923 9.86713C1.86033 8.74938 2.09202 8.04914 2.4895 7.50206C2.7718 7.1135 3.1135 6.7718 3.50206 6.4895Z" fill="white"/>
<path d="M13.5892 18.782C12.3152 19.636 11.1112 20.063 9.97715 20.063C9.50115 20.063 8.94115 19.944 8.29715 19.706C7.87715 19.552 7.54115 19.265 7.28915 18.845C7.03715 18.411 6.91115 17.872 6.91115 17.228V10.55H5.44115V9.5H8.27615V16.808C8.27615 17.298 8.38115 17.704 8.59115 18.026C8.80115 18.334 9.06715 18.537 9.38915 18.635C9.92115 18.803 10.3482 18.873 10.6702 18.845C11.5102 18.831 12.4832 18.53 13.5892 17.942V10.55H12.1192V9.5H14.9542V18.95H16.5712V20H13.7992L13.5892 18.782Z" fill="white"/>
</svg>
