<svg width="21" height="20" viewBox="0 0 21 20" fill="none" xmlns="http://www.w3.org/2000/svg">
<path d="M5.6992 1.65509C6.07364 1.27885 6.07633 0.666114 5.70523 0.286505C5.33412 -0.0931041 4.72974 -0.095838 4.35531 0.280399L2.52113 2.12342C1.83873 2.80908 1.26959 3.38093 0.863788 3.89321C0.438156 4.43053 0.114409 4.99524 0.0279121 5.68323C0.00930494 5.83123 0 5.98013 0 6.12903C0 6.27793 0.00930479 6.42683 0.0279118 6.57483C0.114408 7.26282 0.438154 7.82753 0.863786 8.36485C1.26958 8.87713 1.83872 9.44898 2.52113 10.1346L4.35531 11.9777C4.72974 12.3539 5.33412 12.3512 5.70523 11.9716C6.07633 11.5919 6.07363 10.9792 5.6992 10.603L3.90419 8.79931C3.1725 8.06409 2.68204 7.56921 2.35228 7.15292C2.33716 7.13383 2.32256 7.11512 2.30845 7.09678H13.6818C16.6692 7.09678 19.0909 9.55199 19.0909 12.5806C19.0909 15.6093 16.6692 18.0645 13.6818 18.0645H3.50005C2.97287 18.0645 2.54551 18.4978 2.54551 19.0323C2.54551 19.5667 2.97287 20 3.50005 20H13.6818C17.7235 20 21 16.6782 21 12.5806C21 8.48305 17.7235 5.16129 13.6818 5.16129H2.30845C2.32256 5.14295 2.33716 5.12424 2.35228 5.10515C2.68205 4.68885 3.1725 4.19397 3.90418 3.45876L5.6992 1.65509Z" fill="white"/>
</svg>
