<svg width="36" height="38" viewBox="0 0 36 38" fill="none" xmlns="http://www.w3.org/2000/svg">
<path d="M1.98369 10.3833L2.87087 10.8448L1.98369 10.3833ZM2.42615 9.62748L3.26288 10.1751L2.42615 9.62748ZM9.5 33.5211L9.00515 34.3901L9.5 33.5211ZM2.42615 28.3725L3.26288 27.8249L2.42615 28.3725ZM1.98369 27.6166L2.87087 27.1552L1.98369 27.6166ZM26.5 33.5211L26.9948 34.3901L26.5 33.5211ZM18.4425 36.9892L18.4914 37.988L18.4425 36.9892ZM17.5575 36.9892L17.5086 37.988L17.5575 36.9892ZM34.0163 27.6166L33.1291 27.1552L34.0163 27.6166ZM33.5739 28.3725L32.7371 27.8249L33.5739 28.3725ZM33.5739 9.62748L32.7371 10.1751L33.5739 9.62748ZM34.0163 10.3833L33.1291 10.8448L34.0163 10.3833ZM18.4425 1.01083L18.4914 0.0120236L18.4425 1.01083ZM17.5575 1.01083L17.5086 0.0120236L17.5575 1.01083ZM30.1991 31.0794L29.2414 31.3669L29.2493 31.3932L29.2586 31.419L30.1991 31.0794ZM5.7883 31.1217L4.82868 30.8404L4.81542 30.8856L4.80648 30.9319L5.7883 31.1217ZM5.7498 31.3208L5.21429 32.1654L5.7498 31.3208ZM24.1381 13.7196C24.1381 17.0428 21.403 19.7601 18 19.7601V21.7601C22.4816 21.7601 26.1381 18.1732 26.1381 13.7196H24.1381ZM18 19.7601C14.597 19.7601 11.8619 17.0428 11.8619 13.7196H9.86185C9.86185 18.1732 13.5185 21.7601 18 21.7601V19.7601ZM11.8619 13.7196C11.8619 10.3964 14.597 7.67907 18 7.67907V5.67907C13.5185 5.67907 9.86185 9.266 9.86185 13.7196H11.8619ZM18 7.67907C21.403 7.67907 24.1381 10.3964 24.1381 13.7196H26.1381C26.1381 9.266 22.4816 5.67907 18 5.67907V7.67907ZM2 19C2 16.7405 2.00094 15.1117 2.11888 13.8098C2.23505 12.5275 2.46007 11.6346 2.87087 10.8448L1.09652 9.92192C0.523627 11.0234 0.256795 12.1971 0.12704 13.6294C-0.000943661 15.0421 0 16.776 0 19H2ZM9.00515 3.60992C7.05197 4.72217 5.53045 5.58756 4.35531 6.40235C3.1648 7.2278 2.26937 8.04089 1.58941 9.07987L3.26288 10.1751C3.75172 9.42815 4.42486 8.78784 5.4949 8.04593C6.58031 7.29335 8.01132 6.47741 9.99485 5.34788L9.00515 3.60992ZM2.87087 10.8448C2.9902 10.6153 3.12103 10.3918 3.26288 10.1751L1.58941 9.07987C1.41112 9.35229 1.24662 9.63332 1.09652 9.92192L2.87087 10.8448ZM0 19C0 21.224 -0.000943661 22.9579 0.12704 24.3706C0.256795 25.8029 0.523627 26.9766 1.09652 28.0781L2.87087 27.1552C2.46007 26.3654 2.23505 25.4725 2.11888 24.1902C2.00094 22.8883 2 21.2595 2 19H0ZM3.26288 27.8249C3.12103 27.6082 2.9902 27.3847 2.87087 27.1552L1.09652 28.0781C1.24662 28.3667 1.41112 28.6477 1.58941 28.9201L3.26288 27.8249ZM26.0052 32.6521C24.0217 33.7816 22.5897 34.596 21.386 35.147C20.1996 35.69 19.2984 35.9461 18.3935 35.9904L18.4914 37.988C19.739 37.9269 20.8982 37.5698 22.2183 36.9656C23.5211 36.3693 25.0416 35.5024 26.9948 34.3901L26.0052 32.6521ZM9.00515 34.3901C10.9584 35.5024 12.4789 36.3693 13.7817 36.9656C15.1018 37.5698 16.261 37.9269 17.5086 37.988L17.6065 35.9904C16.7016 35.9461 15.8004 35.69 14.614 35.147C13.4103 34.596 11.9783 33.7816 9.99485 32.6521L9.00515 34.3901ZM18.3935 35.9904C18.1313 36.0032 17.8687 36.0032 17.6065 35.9904L17.5086 37.988C17.836 38.004 18.164 38.004 18.4914 37.988L18.3935 35.9904ZM34 19C34 21.2595 33.9991 22.8883 33.8811 24.1902C33.7649 25.4725 33.5399 26.3654 33.1291 27.1552L34.9035 28.0781C35.4764 26.9766 35.7432 25.8029 35.873 24.3706C36.0009 22.9579 36 21.224 36 19H34ZM33.1291 27.1552C33.0098 27.3847 32.879 27.6082 32.7371 27.8249L34.4106 28.9201C34.5889 28.6477 34.7534 28.3667 34.9035 28.0781L33.1291 27.1552ZM26.0052 5.34788C27.9887 6.47741 29.4197 7.29335 30.5051 8.04593C31.5751 8.78784 32.2483 9.42815 32.7371 10.1751L34.4106 9.07987C33.7306 8.04089 32.8352 7.2278 31.6447 6.40235C30.4695 5.58756 28.948 4.72217 26.9948 3.60992L26.0052 5.34788ZM36 19C36 16.776 36.0009 15.0421 35.873 13.6294C35.7432 12.1971 35.4764 11.0234 34.9035 9.92192L33.1291 10.8448C33.5399 11.6346 33.7649 12.5275 33.8811 13.8098C33.9991 15.1117 34 16.7405 34 19H36ZM32.7371 10.1751C32.879 10.3918 33.0098 10.6153 33.1291 10.8448L34.9035 9.92192C34.7534 9.63332 34.5889 9.35229 34.4106 9.07987L32.7371 10.1751ZM26.9948 3.60992C25.0416 2.49762 23.5211 1.63073 22.2183 1.03444C20.8982 0.430208 19.739 0.0731179 18.4914 0.0120236L18.3935 2.00963C19.2984 2.05394 20.1996 2.31 21.386 2.853C22.5897 3.40396 24.0217 4.2184 26.0052 5.34788L26.9948 3.60992ZM9.99485 5.34788C11.9783 4.2184 13.4103 3.40396 14.614 2.853C15.8004 2.31 16.7016 2.05394 17.6065 2.00963L17.5086 0.0120236C16.261 0.0731179 15.1018 0.430208 13.7817 1.03444C12.4789 1.63073 10.9584 2.49762 9.00515 3.60992L9.99485 5.34788ZM18.4914 0.0120236C18.164 -0.00400782 17.836 -0.00400782 17.5086 0.0120236L17.6065 2.00963C17.8687 1.99679 18.1313 1.99679 18.3935 2.00963L18.4914 0.0120236ZM12.6464 27.0405H23.3536V25.0405H12.6464V27.0405ZM23.3536 27.0405C26.1451 27.0405 28.4928 28.8724 29.2414 31.3669L31.1569 30.792C30.1569 27.4597 27.0367 25.0405 23.3536 25.0405V27.0405ZM26.9948 34.3901C28.524 33.5193 29.7847 32.8017 30.816 32.1461L29.7431 30.4582C28.7618 31.082 27.5491 31.7729 26.0052 32.6521L26.9948 34.3901ZM30.816 32.1461C32.4304 31.1199 33.582 30.1863 34.4106 28.9201L32.7371 27.8249C32.1406 28.7365 31.2725 29.4861 29.7431 30.4582L30.816 32.1461ZM29.2586 31.419L29.339 31.6418L31.2201 30.9625L31.1397 30.7398L29.2586 31.419ZM12.6464 25.0405C8.94558 25.0405 5.81288 27.4832 4.82868 30.8404L6.74791 31.4031C7.48456 28.8902 9.84132 27.0405 12.6464 27.0405V25.0405ZM9.99485 32.6521C8.466 31.7815 7.26183 31.0955 6.28531 30.4763L5.21429 32.1654C6.23974 32.8156 7.49071 33.5277 9.00515 34.3901L9.99485 32.6521ZM6.28531 30.4763C4.73829 29.4954 3.8632 28.7422 3.26288 27.8249L1.58941 28.9201C2.42314 30.1941 3.58392 31.1316 5.21429 32.1654L6.28531 30.4763ZM4.80648 30.9319L4.76799 31.131L6.73162 31.5107L6.77011 31.3116L4.80648 30.9319Z" fill="#4784F1"/>
</svg>
